<!-- Generated by IcoMoon.io -->
<svg version="1.1" xmlns="http://www.w3.org/2000/svg" width="989" height="1024" viewBox="0 0 989 1024">
<title></title>
<g id="icomoon-ignore">
</g>
<path  d="M299.323 728.615c-181.169 43.323-299.323 153.6-299.323 275.692 0 11.815 7.877 19.692 19.692 19.692s19.692-7.877 19.692-19.692c0-102.4 106.338-196.923 267.815-236.308 11.815-3.938 19.692-11.815 15.754-23.631s-11.815-19.692-23.631-15.754z"></path>
<path  d="M689.231 728.615c-11.815 0-19.692 3.938-23.631 15.754 0 11.815 3.938 19.692 15.754 23.631 161.477 39.385 267.815 133.908 267.815 236.308 0 11.815 7.877 19.692 19.692 19.692 7.877 0 19.692-7.877 19.692-19.692 0-122.092-118.154-232.369-299.323-275.692z"></path>
<path  d="M791.631 496.246c0 0 0-3.938 0-3.938v-236.308c0-145.723-157.538-256-295.385-256-122.092 0-259.938 86.646-287.508 208.738-7.877-3.938-15.754-7.877-19.692-11.815-11.815-7.877-27.569-3.938-31.508 3.938s-3.938 19.692 3.938 23.631c11.815 11.815 27.569 19.692 39.385 23.631 0 3.938 0 3.938 0 7.877v236.308c0 0 0 3.938 0 3.938 7.877 137.846 161.477 244.185 295.385 244.185s283.569-106.338 295.385-244.185zM496.246 701.046c-118.154 0-256-94.523-256-216.615v-220.554c19.692 3.938 39.385 7.877 59.077 7.877 82.708 0 173.292-35.446 267.815-102.4 7.877-7.877 11.815-19.692 3.938-27.569s-19.692-11.815-27.569-3.938c-106.338 78.769-220.554 110.277-299.323 86.646 19.692-106.338 145.723-185.108 252.062-185.108 118.154 0 256 94.523 256 216.615v228.431c0 122.092-137.846 216.615-256 216.615z"></path>
</svg>
