<!-- Generated by IcoMoon.io -->
<svg version="1.1" xmlns="http://www.w3.org/2000/svg" width="1185" height="1024" viewBox="0 0 1185 1024">
<title></title>
<g id="icomoon-ignore">
</g>
<path  d="M1163.636 347.301h-189.762l-239.888-340.14c-3.58-3.58-7.161-7.161-14.322-7.161-3.58 0-10.741 0-14.322 3.58-7.161 7.161-10.741 17.902-3.58 25.063l225.566 318.657h-637.315l225.566-318.657c7.161-7.161 3.58-21.483-3.58-25.063-3.58-3.58-7.161-3.58-14.322-3.58-3.58 0-10.741 3.58-10.741 7.161l-243.469 340.14h-225.566c-10.741 0-17.902 7.161-17.902 17.902v186.182c0 10.741 7.161 21.483 17.902 21.483h64.448l82.35 436.811c0 7.161 10.741 14.322 17.902 14.322h812.755c10.741 0 17.902-7.161 17.902-14.322l85.93-436.811h64.448c10.741 0 17.902-7.161 17.902-17.902v-186.182c3.58-14.322-7.161-21.483-17.902-21.483zM168.28 454.713c-3.58 3.58-3.58 10.741-3.58 14.322s3.58 10.741 7.161 10.741c3.58 3.58 7.161 3.58 10.741 3.58 7.161 0 10.741-3.58 14.322-7.161l64.448-93.091h691.021l64.448 93.091c3.58 3.58 10.741 7.161 14.322 7.161s7.161 0 10.741-3.58c3.58-3.58 7.161-7.161 7.161-10.741s0-10.741-3.58-14.322l-50.126-71.608h150.378v150.378h-1106.35v-150.378h182.601l-53.706 71.608zM1059.804 572.867l-78.769 415.329h-780.531l-78.769-415.329h938.070z"></path>
<path  d="M286.434 927.329c10.741 0 17.902-7.161 17.902-17.902v-257.79c0-10.741-7.161-17.902-17.902-17.902s-17.902 7.161-17.902 17.902v257.79c0 7.161 7.161 17.902 17.902 17.902z"></path>
<path  d="M436.811 927.329c10.741 0 17.902-7.161 17.902-17.902v-257.79c0-10.741-7.161-17.902-17.902-17.902s-17.902 7.161-17.902 17.902v257.79c-3.58 7.161 7.161 17.902 17.902 17.902z"></path>
<path  d="M730.406 927.329c10.741 0 17.902-7.161 17.902-17.902v-257.79c0-10.741-7.161-17.902-17.902-17.902s-17.902 7.161-17.902 17.902v257.79c0 7.161 7.161 17.902 17.902 17.902z"></path>
<path  d="M583.608 927.329c10.741 0 17.902-7.161 17.902-17.902v-257.79c0-10.741-7.161-17.902-17.902-17.902s-17.902 7.161-17.902 17.902v257.79c0 7.161 7.161 17.902 17.902 17.902z"></path>
<path  d="M877.203 927.329c10.741 0 17.902-7.161 17.902-17.902v-257.79c0-10.741-7.161-17.902-17.902-17.902s-17.902 7.161-17.902 14.322v257.79c0 10.741 7.161 21.483 17.902 21.483z"></path>
</svg>
