<!-- Generated by IcoMoon.io -->
<svg version="1.1" xmlns="http://www.w3.org/2000/svg" width="1024" height="1024" viewBox="0 0 1024 1024">
<title></title>
<g id="icomoon-ignore">
</g>
<path  d="M1024 576c0-98.133-72.533-179.2-170.667-192v-42.667c0-187.733-153.6-341.333-341.333-341.333s-341.333 153.6-341.333 341.333v42.667c-98.133 8.533-170.667 89.6-170.667 192 0 106.667 85.333 192 192 192h42.667c12.8 0 21.333-8.533 21.333-21.333v-341.333c0-12.8-8.533-21.333-21.333-21.333h-21.333v-42.667c0-166.4 132.267-298.667 298.667-298.667s298.667 132.267 298.667 298.667v42.667h-21.333c-12.8 0-21.333 8.533-21.333 21.333v341.333c0 12.8 8.533 21.333 21.333 21.333h21.333c-4.267 55.467-34.133 123.733-140.8 128-12.8-25.6-42.667-42.667-72.533-42.667h-85.333c-46.933 0-85.333 38.4-85.333 85.333s38.4 85.333 85.333 85.333h85.333c46.933 0 85.333-38.4 85.333-85.333 0 0 0 0 0 0 98.133-8.533 162.133-72.533 170.667-170.667 93.867-12.8 170.667-93.867 170.667-192zM213.333 725.333h-21.333c-81.067 0-149.333-68.267-149.333-149.333s68.267-149.333 149.333-149.333h21.333v298.667zM597.333 981.333h-85.333c-25.6 0-42.667-17.067-42.667-42.667s17.067-42.667 42.667-42.667h85.333c25.6 0 42.667 17.067 42.667 42.667s-17.067 42.667-42.667 42.667zM832 725.333h-21.333v-298.667h21.333c81.067 0 149.333 68.267 149.333 149.333s-68.267 149.333-149.333 149.333z"></path>
</svg>
