<?xml version="1.0" encoding="utf-8"?>
<!-- Generator: Adobe Illustrator 24.0.0, SVG Export Plug-In . SVG Version: 6.00 Build 0)  -->
<svg version="1.1" id="Layer_1" xmlns="http://www.w3.org/2000/svg" xmlns:xlink="http://www.w3.org/1999/xlink" x="0px" y="0px"
	 viewBox="0 0 478 478" style="enable-background:new 0 0 478 478;" xml:space="preserve">
<g>
	<path  d="M263,176c0-12.2,2.9-18,21.9-18H308v-45h-39c-48.5,0-64,21.6-64,59.7V203h-33v46h33v136h58V249h40.2l5.4-46
		H263V176z"/>
	<path  d="M239,0C107,0,0,107,0,239s107,239,239,239s239-107,239-239S371,0,239,0z M397.4,397.4
		C355.1,439.7,298.8,463,239,463s-116.1-23.3-158.4-65.6C38.3,355.1,15,298.8,15,239S38.3,122.9,80.6,80.6
		C122.9,38.3,179.2,15,239,15s116.1,23.3,158.4,65.6C439.7,122.9,463,179.2,463,239S439.7,355.1,397.4,397.4z"/>
</g>
</svg>
