<!-- Generated by IcoMoon.io -->
<svg version="1.1" xmlns="http://www.w3.org/2000/svg" width="1688" height="1024" viewBox="0 0 1688 1024">
<title></title>
<g id="icomoon-ignore">
</g>
<path  d="M1444.073 315.345c-4.655-5.818-10.473-8.145-17.455-8.145h-187.345c-12.8 0-23.273 10.473-23.273 23.273v178.036c0 12.8 10.473 23.273 23.273 23.273h268.8c12.8 0 23.273-10.473 23.273-23.273v-79.127c0-5.818-2.327-10.473-5.818-15.127l-81.455-98.909zM1484.8 485.236h-222.255v-131.491h152.436l69.818 83.782v47.709z"></path>
<path  d="M487.564 566.691c0-12.8-10.473-23.273-23.273-23.273h-441.018c-12.8 0-23.273 10.473-23.273 23.273s10.473 23.273 23.273 23.273h441.018c12.8 0 23.273-10.473 23.273-23.273z"></path>
<path  d="M596.945 825.018c-23.273 0-40.727 18.618-40.727 40.727 0 23.273 18.618 40.727 40.727 40.727 23.273 0 40.727-18.618 40.727-40.727s-18.618-40.727-40.727-40.727z"></path>
<path  d="M272.291 411.927h335.127c12.8 0 23.273-10.473 23.273-23.273s-10.473-23.273-23.273-23.273h-335.127c-12.8 0-23.273 10.473-23.273 23.273s10.473 23.273 23.273 23.273z"></path>
<path  d="M495.709 238.545h306.036c12.8 0 23.273-10.473 23.273-23.273s-10.473-23.273-23.273-23.273h-306.036c-12.8 0-23.273 10.473-23.273 23.273s10.473 23.273 23.273 23.273z"></path>
<path  d="M1661.673 431.709l-147.782-189.673c-17.455-23.273-45.382-36.073-74.473-36.073h-279.273v-147.782c0-32.582-25.6-58.182-58.182-58.182h-396.8c-12.8 0-23.273 10.473-23.273 23.273s10.473 23.273 23.273 23.273h396.8c6.982 0 11.636 4.655 11.636 11.636v731.927c0 6.982-4.655 11.636-11.636 11.636h-361.891c0 0 0 0 0 0-24.436-54.691-79.127-91.927-143.127-91.927s-118.691 38.4-143.127 91.927h-208.291c-12.8 0-23.273 10.473-23.273 23.273s10.473 23.273 23.273 23.273h195.491c0 0 0 0 0-1.164-1.164 5.818-1.164 12.8-1.164 18.618 0 87.273 70.982 157.091 157.091 157.091 87.273 0 157.091-70.982 157.091-157.091 0-5.818 0-12.8-1.164-18.618 0 0 0 0 0 0h515.491c0 0 0 0 0 0-1.164 5.818-1.164 12.8-1.164 18.618 0 87.273 70.982 157.091 157.091 157.091 87.273 0 157.091-70.982 157.091-157.091 0-6.982 0-12.8-1.164-18.618 0 0 0 0 0 0h48.873c32.582 0 58.182-25.6 58.182-58.182v-280.436c1.164-27.927-8.145-54.691-25.6-76.8zM596.945 977.455c-61.673 0-110.545-50.036-110.545-110.545 0-61.673 50.036-110.545 110.545-110.545 61.673 0 110.545 50.036 110.545 110.545s-50.036 110.545-110.545 110.545zM1425.455 977.455c-61.673 0-110.545-50.036-110.545-110.545 0-61.673 50.036-110.545 110.545-110.545 61.673 0 110.545 50.036 110.545 110.545s-50.036 110.545-110.545 110.545zM1641.891 790.109c0 6.982-4.655 11.636-11.636 11.636h-61.673c0 0 0 0 0 0-24.436-54.691-79.127-91.927-143.127-91.927s-118.691 38.4-143.127 91.927h-123.345c0 0 0 0 0 0 1.164-3.491 1.164-8.145 1.164-11.636v-537.6h278.109c15.127 0 29.091 6.982 38.4 18.618l147.782 189.673c10.473 13.964 16.291 30.255 16.291 47.709v281.6z"></path>
<path  d="M1425.455 825.018c-23.273 0-40.727 18.618-40.727 40.727 0 23.273 18.618 40.727 40.727 40.727 23.273 0 40.727-18.618 40.727-40.727s-18.618-40.727-40.727-40.727z"></path>
</svg>
