<!-- Generated by IcoMoon.io -->
<svg version="1.1" xmlns="http://www.w3.org/2000/svg" width="1198" height="1024" viewBox="0 0 1198 1024">
<title></title>
<g id="icomoon-ignore">
</g>
<path  d="M594.342 213.245c-11.612 0-21.113 9.501-21.113 21.113v362.095c0 11.612 9.501 21.113 21.113 21.113s21.113-9.501 21.113-21.113v-362.095c0-11.612-9.501-21.113-21.113-21.113z"></path>
<path  d="M419.101 213.245c-11.612 0-21.113 9.501-21.113 21.113v362.095c0 11.612 9.501 21.113 21.113 21.113s21.113-9.501 21.113-21.113v-362.095c0-11.612-9.501-21.113-21.113-21.113z"></path>
<path  d="M135.126 497.221c11.612 0 21.113-9.501 21.113-21.113v-121.402c0-11.612-9.501-21.113-21.113-21.113s-21.113 9.501-21.113 21.113v121.402c0 11.612 9.501 21.113 21.113 21.113z"></path>
<path  d="M50.672 497.221c11.612 0 21.113-9.501 21.113-21.113v-121.402c0-11.612-9.501-21.113-21.113-21.113s-21.113 9.501-21.113 21.113v121.402c0 11.612 9.501 21.113 21.113 21.113z"></path>
<path  d="M1177.072 333.592c-11.612 0-21.113 9.501-21.113 21.113v121.402c0 11.612 9.501 21.113 21.113 21.113s21.113-9.501 21.113-21.113v-121.402c0-11.612-9.501-21.113-21.113-21.113z"></path>
<path  d="M1092.619 333.592c-11.612 0-21.113 9.501-21.113 21.113v121.402c0 11.612 9.501 21.113 21.113 21.113s21.113-9.501 21.113-21.113v-121.402c0-11.612-9.501-21.113-21.113-21.113z"></path>
<path  d="M703.076 213.245c-11.612 0-21.113 9.501-21.113 21.113v362.095c0 11.612 9.501 21.113 21.113 21.113s21.113-9.501 21.113-21.113v-362.095c0-11.612-9.501-21.113-21.113-21.113z"></path>
<path  d="M811.81 213.245c-11.612 0-21.113 9.501-21.113 21.113v362.095c0 11.612 9.501 21.113 21.113 21.113s21.113-9.501 21.113-21.113v-362.095c0-11.612-9.501-21.113-21.113-21.113z"></path>
<path  d="M615.456 0c-224.858 0-408.544 183.687-408.544 408.544 0 84.454 25.336 162.573 69.674 226.969-2.111 1.056-4.223 3.167-5.278 4.223l-254.416 236.47c-9.501 8.445-14.779 20.058-16.891 31.67-2.111 13.724 2.111 26.392 11.612 35.893l67.563 67.563c7.39 7.39 17.946 11.612 29.559 11.612 13.724 0 27.447-6.334 39.060-16.891l241.748-254.416c1.056-1.056 1.056-2.111 2.111-2.111 64.396 42.227 141.46 67.563 223.802 67.563 108.734 0 212.19-42.227 289.254-119.291s119.291-180.52 119.291-289.254c0-224.858-183.687-408.544-408.544-408.544zM117.179 977.551c-3.167 3.167-7.39 4.223-8.445 4.223l-66.507-66.507c0-1.056 1.056-5.278 4.223-8.445l253.361-235.414c1.056-1.056 2.111-1.056 2.111 0l6.334 5.278c14.779 17.946 31.67 33.781 49.616 48.561 0 0 0 0 0 0l-240.693 252.305zM291.365 656.627c0 0 0 0 0 0s0 0 0 0zM373.707 737.913c0 0 0 0 0 0s0 0 0 0zM874.095 667.184c-69.674 69.674-161.518 107.678-258.639 107.678-201.633 0-366.318-164.685-366.318-366.318s164.685-366.318 366.318-366.318c201.633 0 366.318 164.685 366.318 366.318 0 98.177-38.004 190.021-107.678 258.639z"></path>
</svg>
