<?xml version="1.0" encoding="utf-8"?>
<!-- Generator: Adobe Illustrator 24.0.0, SVG Export Plug-In . SVG Version: 6.00 Build 0)  -->
<svg version="1.1" id="Layer_1" xmlns="http://www.w3.org/2000/svg" xmlns:xlink="http://www.w3.org/1999/xlink" x="0px" y="0px"
	 viewBox="0 0 478 478" style="enable-background:new 0 0 478 478;" xml:space="preserve">

<g>
	<path  d="M239,0C107,0,0,107,0,239s107,239,239,239s239-107,239-239S371,0,239,0z M397.4,397.4
		C355.1,439.7,298.8,463,239,463s-116.1-23.3-158.4-65.6C38.3,355.1,15,298.8,15,239S38.3,122.9,80.6,80.6
		C122.9,38.3,179.2,15,239,15s116.1,23.3,158.4,65.6C439.7,122.9,463,179.2,463,239S439.7,355.1,397.4,397.4z"/>
	<path  d="M324.4,126h-168c-16,0-29.4,12.6-29.4,28.6v168c0,16,13.4,29.4,29.4,29.4h168c16,0,28.6-13.5,28.6-29.4v-168
		C353,138.6,340.3,126,324.4,126z M240.6,194.1c25.1,0,45.4,19.7,45.4,44s-20.3,44-45.4,44c-25.1,0-45.4-19.7-45.4-44
		S215.5,194.1,240.6,194.1z M328,316.6c0,4.9-4.2,9.4-9.1,9.4H161.5c-4.9,0-9.5-4.4-9.5-9.4V221h21.2c-1.9,6-2.9,12.7-2.9,19.4
		c0,37.6,31.5,68.1,70.3,68.1c38.8,0,70.3-30.5,70.3-68.1c0-6.7-1-13.5-2.9-19.5H328V316.6z M328,185.2c0,5.6-4.8,9.8-10.4,9.8H292
		c-5.6,0-10-4.2-10-9.8v-24.4c0-5.6,4.4-9.8,10-9.8h25.5c5.6,0,10.4,4.3,10.4,9.8V185.2z"/>
</g>
</svg>
