<!-- Generated by IcoMoon.io -->
<svg version="1.1" xmlns="http://www.w3.org/2000/svg" width="1087" height="1024" viewBox="0 0 1087 1024">
<title></title>
<g id="icomoon-ignore">
</g>
<path  d="M254.416 440.214l215.357-305.089c15.835 24.28 43.282 41.171 73.897 41.171s58.062-15.835 73.897-41.171l215.357 305.089h51.728l-253.361-358.928c-4.223-45.394-42.227-81.287-87.621-81.287-46.449 0-83.398 35.893-87.621 80.231l-253.361 358.928h51.728zM543.67 42.227c25.336 0 45.394 20.058 45.394 45.394s-20.058 45.394-45.394 45.394c-25.336 0-45.394-20.058-45.394-45.394s20.058-45.394 45.394-45.394z"></path>
<path  d="M960.66 492.998h-833.979c-69.674 0-126.68 57.006-126.68 126.68v277.641c0 69.674 57.006 126.68 126.68 126.68h833.979c69.674 0 126.68-57.006 126.68-126.68v-277.641c0-69.674-57.006-126.68-126.68-126.68zM1045.113 897.32c0 46.449-38.004 84.454-84.454 84.454h-833.979c-46.449 0-84.454-38.004-84.454-84.454v-277.641c0-46.449 38.004-84.454 84.454-84.454h833.979c46.449 0 84.454 38.004 84.454 84.454v277.641z"></path>
<path  d="M309.311 689.353c-13.724-7.39-29.559-11.612-48.561-11.612s-34.837 4.223-48.561 11.612c-13.724 7.39-24.28 19.002-30.614 32.726-7.39 13.724-10.557 30.614-10.557 50.672 0 19.002 3.167 35.893 10.557 50.672 7.39 13.724 16.891 25.336 30.614 32.726s29.559 11.612 48.561 11.612c19.002 0 34.837-4.223 48.561-11.612s24.28-19.002 30.614-32.726c7.39-13.724 10.557-30.614 10.557-50.672 0-19.002-3.167-35.893-10.557-50.672-7.39-13.724-16.891-25.336-30.614-32.726zM299.81 819.2c-9.501 10.557-22.169 15.835-39.060 15.835s-29.559-5.278-39.060-15.835c-9.501-10.557-13.724-26.392-13.724-46.449s4.223-35.893 13.724-46.449c9.501-10.557 22.169-15.835 39.060-15.835s29.559 5.278 39.060 15.835c9.501 10.557 13.724 26.392 13.724 46.449s-4.223 35.893-13.724 46.449z"></path>
<path  d="M459.216 680.907h-60.173v183.687h33.781v-61.229h28.503c23.225 0 41.171-5.278 53.839-15.835s17.946-26.392 17.946-45.394c0-19.002-6.334-34.837-19.002-44.338-10.557-11.612-29.559-16.891-54.895-16.891zM488.775 765.361c-6.334 4.223-15.835 7.39-29.559 7.39h-26.392v-61.229h25.336c13.724 0 23.225 2.111 29.559 6.334s9.501 12.668 9.501 23.225c1.056 11.612-2.111 20.058-8.445 24.28z"></path>
<path  d="M572.173 864.594h120.346v-30.614h-85.509v-47.505h79.175v-29.559h-79.175v-45.394h85.509v-30.614h-120.346z"></path>
<path  d="M862.482 802.309l-86.565-121.402h-34.837v183.687h34.837v-121.402l86.565 121.402h34.837v-183.687h-34.837z"></path>
</svg>
