<?xml version="1.0" encoding="utf-8"?>
<!-- Generator: Adobe Illustrator 24.0.0, SVG Export Plug-In . SVG Version: 6.00 Build 0)  -->
<svg version="1.1" id="Layer_1" xmlns="http://www.w3.org/2000/svg" xmlns:xlink="http://www.w3.org/1999/xlink" x="0px" y="0px"
	 viewBox="0 0 478 478" style="enable-background:new 0 0 478 478;" xml:space="preserve">

<g>
	<path  d="M301.8,197c-26,0-37.8,14.7-44.8,24.9V201h-49v152h49v-86.6c0-4.5,0.6-8.9,2-12.1c3.6-8.9,12.1-18.2,25.7-18.2
		c17.8,0,25.4,13.7,25.4,33.7V353h49v-88.9C359,218.3,334.1,197,301.8,197z"/>
	<path  d="M156.2,124.5c-16.1,0-26.6,11.3-26.6,26.2c0,14.7,10.2,26.2,25.9,26.2h0.4c16.4,0,26.6-11.6,26.6-26.2
		C182.1,135.7,172.3,124.5,156.2,124.5z"/>
	<rect x="130" y="201" class="st0" width="49" height="152"/>
	<path  d="M239,0C107,0,0,107,0,239s107,239,239,239s239-107,239-239S371,0,239,0z M397.4,397.4
		C355.1,439.7,298.8,463,239,463s-116.1-23.3-158.4-65.6C38.3,355.1,15,298.8,15,239S38.3,122.9,80.6,80.6
		C122.9,38.3,179.2,15,239,15s116.1,23.3,158.4,65.6C439.7,122.9,463,179.2,463,239S439.7,355.1,397.4,397.4z"/>
</g>
</svg>
