<!-- Generated by IcoMoon.io -->
<svg version="1.1" xmlns="http://www.w3.org/2000/svg" width="1178" height="1024" viewBox="0 0 1178 1024">
<title></title>
<g id="icomoon-ignore">
</g>
<path  d="M906.185 663.948c44.043 0 79.277-35.234 79.277-79.277s-35.234-79.277-79.277-79.277c-44.043 0-79.277 35.234-79.277 79.277s35.234 79.277 79.277 79.277zM906.185 549.437c19.819 0 35.234 15.415 35.234 35.234s-15.415 35.234-35.234 35.234c-19.819 0-35.234-15.415-35.234-35.234s15.415-35.234 35.234-35.234z"></path>
<path  d="M265.359 865.445h-73.772c-12.112 0-22.022 9.91-22.022 22.022s9.91 22.022 22.022 22.022h73.772c12.112 0 22.022-9.91 22.022-22.022s-9.91-22.022-22.022-22.022z"></path>
<path  d="M485.574 865.445h-73.772c-12.112 0-22.022 9.91-22.022 22.022s9.91 22.022 22.022 22.022h73.772c12.112 0 22.022-9.91 22.022-22.022s-9.91-22.022-22.022-22.022z"></path>
<path  d="M705.789 865.445h-73.772c-12.112 0-22.022 9.91-22.022 22.022s9.91 22.022 22.022 22.022h73.772c12.112 0 22.022-9.91 22.022-22.022s-9.91-22.022-22.022-22.022z"></path>
<path  d="M852.232 909.488h73.772c12.112 0 22.022-9.91 22.022-22.022s-9.91-22.022-22.022-22.022h-73.772c-12.112 0-22.022 9.91-22.022 22.022s9.91 22.022 22.022 22.022z"></path>
<path  d="M265.359 259.854h-73.772c-12.112 0-22.022 9.91-22.022 22.022s9.91 22.022 22.022 22.022h73.772c12.112 0 22.022-9.91 22.022-22.022s-9.91-22.022-22.022-22.022z"></path>
<path  d="M485.574 259.854h-73.772c-12.112 0-22.022 9.91-22.022 22.022s9.91 22.022 22.022 22.022h73.772c12.112 0 22.022-9.91 22.022-22.022s-9.91-22.022-22.022-22.022z"></path>
<path  d="M705.789 259.854h-73.772c-12.112 0-22.022 9.91-22.022 22.022s9.91 22.022 22.022 22.022h73.772c12.112 0 22.022-9.91 22.022-22.022s-9.91-22.022-22.022-22.022z"></path>
<path  d="M852.232 303.897h73.772c12.112 0 22.022-9.91 22.022-22.022s-9.91-22.022-22.022-22.022h-73.772c-12.112 0-22.022 9.91-22.022 22.022s9.91 22.022 22.022 22.022z"></path>
<path  d="M1155.028 432.723h-36.335v-209.204c0-42.942-35.234-77.075-77.075-77.075h-897.376c-79.277 0-100.198-22.022-100.198-40.74s4.404-61.66 100.198-61.66h799.381c35.234 0 48.447 2.202 48.447 37.437 0 12.112 9.91 11.011 22.022 11.011s22.022 1.101 22.022-11.011c0-59.458-34.133-81.48-92.49-81.48h-799.381c-118.916 0-144.241 59.458-144.241 109.006v836.817c0 42.942 35.234 77.075 77.075 77.075h963.441c42.942 0 77.075-35.234 77.075-77.075v-209.204h36.335c12.112 0 22.022-9.91 22.022-22.022v-259.854c2.202-12.112-7.708-22.022-20.92-22.022zM1074.649 946.925c0 18.718-15.415 33.032-33.032 33.032h-964.542c-18.718 0-33.032-15.415-33.032-33.032v-783.966c20.92 14.314 52.852 26.426 100.198 26.426h897.376c18.718 0 33.032 15.415 33.032 33.032v209.204h-274.168c-35.234 0-63.862 28.628-63.862 63.862v177.273c0 35.234 28.628 63.862 63.862 63.862h273.067v210.305zM1133.006 692.576h-332.525c-11.011 0-19.819-8.809-19.819-18.718v-177.273c0-11.011 8.809-19.819 19.819-19.819h332.525v215.811z"></path>
</svg>
