<!-- Generated by IcoMoon.io -->
<svg version="1.1" xmlns="http://www.w3.org/2000/svg" width="1024" height="1024" viewBox="0 0 1024 1024">
<title></title>
<g id="icomoon-ignore">
</g>
<path fill="#8f8f8f" d="M767.99 106.664v-85.331c0-8.708-5.292-16.562-13.376-19.792-2.582-1.042-5.29-1.542-7.956-1.542-5.708 0-11.292 2.292-15.416 6.584l-469.327 490.658c-7.874 8.25-7.874 21.25 0 29.5l469.327 490.658c6.042 6.292 15.292 8.334 23.376 5.042 8.084-3.23 13.376-11.084 13.376-19.792v-85.333c0-5.458-2.084-10.708-5.834-14.666l-370.122-390.66 370.12-390.66c3.75-3.958 5.832-9.208 5.832-14.668z"></path>
</svg>
