<!-- Generated by IcoMoon.io -->
<svg version="1.1" xmlns="http://www.w3.org/2000/svg" width="1024" height="1024" viewBox="0 0 1024 1024">
<title></title>
<g id="icomoon-ignore">
</g>
<path d="M946.199 334.319l-249.778-17.946c-5.217-0.417-9.807-3.547-11.686-8.555l-95.154-231.624c-13.146-31.927-42.777-51.75-77.417-51.75s-64.062 19.824-77.417 51.959l-95.362 231.832c-2.087 4.799-6.469 8.138-11.686 8.555l-249.361 17.946c-33.805 1.878-62.601 23.997-73.661 56.55-11.268 32.97-1.878 67.609 24.832 90.354l193.020 159.424c3.965 3.339 5.843 8.764 4.591 13.772l-58.845 240.805c-6.886 25.040-2.087 50.915 13.146 71.156 15.65 20.45 40.065 32.761 65.731 32.761 15.859 0 31.3-4.799 44.029-13.355l210.965-131.253c4.382-2.713 10.016-2.713 14.398 0l213.052 130.836c13.355 8.973 28.796 13.772 44.447 13.772 23.997 0 47.785-11.477 63.227-30.883 16.068-20.032 21.91-46.116 16.068-72.2l-59.054-241.431c-1.252-5.217 0.626-10.642 4.591-13.981l195.941-159.841c26.292-22.536 35.683-57.176 24.623-90.145-10.851-32.553-39.856-54.88-73.243-56.758zM962.267 441.784l-195.524 159.633c-19.198 15.65-27.962 41.525-21.91 65.731l59.054 241.014c3.13 14.19-2.504 23.997-6.26 28.588-5.843 7.303-14.607 11.894-23.371 11.894-5.425 0-10.851-1.669-16.694-5.634l-213.887-131.462c-10.225-6.26-21.91-9.599-34.013-9.599s-23.997 3.339-34.222 9.807l-211.8 131.671c-13.564 8.973-31.718 5.008-41.317-7.512-3.965-5.217-8.138-14.19-4.382-27.336l59.054-241.64c5.843-23.997-2.713-49.663-21.702-65.314l-192.602-159.215c-15.233-13.146-11.060-30.048-9.39-34.848s8.555-20.867 28.588-21.91l249.778-17.946c24.623-1.878 45.907-17.111 55.298-40.065l95.362-231.832c7.721-18.78 25.040-20.241 30.048-20.241s22.328 1.461 30.048 20.241l95.362 231.832c9.39 22.954 30.674 38.187 55.298 40.065l250.195 18.154c19.615 1.043 26.501 17.111 28.17 21.91 1.252 4.382 5.425 21.284-9.181 34.013z"></path>
</svg>
