<!-- Generated by IcoMoon.io -->
<svg version="1.1" xmlns="http://www.w3.org/2000/svg" width="1024" height="1024" viewBox="0 0 1024 1024">
<title></title>
<g id="icomoon-ignore">
</g>
<path  d="M320 512c-59.733 0-106.667-46.933-106.667-106.667s46.933-106.667 106.667-106.667 106.667 46.933 106.667 106.667-46.933 106.667-106.667 106.667zM320 341.333c-34.133 0-64 29.867-64 64s29.867 64 64 64 64-29.867 64-64-29.867-64-64-64z"></path>
<path  d="M661.333 768c-59.733 0-106.667-46.933-106.667-106.667s46.933-106.667 106.667-106.667 106.667 46.933 106.667 106.667-46.933 106.667-106.667 106.667zM661.333 597.333c-34.133 0-64 29.867-64 64s29.867 64 64 64 64-29.867 64-64-29.867-64-64-64z"></path>
<path  d="M320 768c-4.267 0-8.533 0-12.8-4.267-8.533-8.533-8.533-21.333-4.267-29.867l384-469.333c8.533-8.533 21.333-8.533 29.867-4.267 8.533 8.533 8.533 21.333 4.267 29.867l-384 469.333c-4.267 4.267-12.8 8.533-17.067 8.533z"></path>
<path  d="M512 1024c-281.6 0-512-230.4-512-512s230.4-512 512-512 512 230.4 512 512-230.4 512-512 512zM512 42.667c-260.267 0-469.333 209.067-469.333 469.333s209.067 469.333 469.333 469.333 469.333-209.067 469.333-469.333-209.067-469.333-469.333-469.333z"></path>
</svg>
