<!-- Generated by IcoMoon.io -->
<svg version="1.1" xmlns="http://www.w3.org/2000/svg" width="1024" height="1024" viewBox="0 0 1024 1024">
<title></title>
<g id="icomoon-ignore">
</g>
<path d="M229.193 1003.294c-11.219 0-22.36-3.5-31.868-10.375-17.711-12.836-25.985-34.899-21.165-56.189l65.877-290.187-223.412-195.927c-16.422-14.336-22.696-37.040-15.954-57.814 6.742-20.735 25.087-35.415 46.806-37.423l295.601-26.837 116.87-273.499c8.617-20.094 28.243-33.071 50.048-33.071s41.431 12.977 50.048 33.024l116.87 273.546 295.554 26.837c21.766 1.961 40.11 16.688 46.853 37.423s0.508 43.478-15.914 57.814l-223.412 195.888 65.877 290.179c4.828 21.336-3.453 43.4-21.157 56.197-17.665 12.797-41.22 13.782-59.822 2.602l-254.897-152.324-254.897 152.41c-8.617 5.117-18.219 7.727-27.907 7.727zM511.998 777.538c9.688 0 19.282 2.602 27.907 7.719l240.561 143.879-62.173-273.89c-4.438-19.493 2.18-39.845 17.243-53.033l210.951-185.005-279.093-25.344c-20.094-1.836-37.376-14.469-45.228-32.985l-110.167-258.1-110.3 258.139c-7.766 18.391-25.048 31.024-45.095 32.86l-279.132 25.344 210.943 185.005c15.11 13.227 21.719 33.54 17.243 53.079l-62.127 273.882 240.561-143.832c8.617-5.117 18.219-7.719 27.907-7.719zM342.821 333.831s0 0.047-0.047 0.086zM681.088 333.706l0.047 0.086c0-0.047 0-0.047-0.047-0.086z"></path>
</svg>
