<?xml version="1.0" encoding="utf-8"?>
<!-- Generator: Adobe Illustrator 24.0.0, SVG Export Plug-In . SVG Version: 6.00 Build 0)  -->
<svg version="1.1" id="Layer_1" xmlns="http://www.w3.org/2000/svg" xmlns:xlink="http://www.w3.org/1999/xlink" x="0px" y="0px"
	 viewBox="0 0 478 478" style="enable-background:new 0 0 478 478;" xml:space="preserve">

<g>
	<path  d="M365.2,170.6c12.3-7.4,21.8-19.1,26.3-33c-11.5,6.8-24.3,11.8-37.9,14.5c-10.9-11.6-26.4-18.9-43.6-18.9
		c-33,0-59.7,26.7-59.7,59.7c0,4.7,0.5,9.2,1.5,13.6c-49.6-2.5-93.6-26.3-123.1-62.4c-5.1,8.8-8.1,19.1-8.1,30
		c0,20.7,10.5,39,26.6,49.7c-9.8-0.3-19-3-27-7.5c0,0.2,0,0.5,0,0.8c0,28.9,20.6,53,47.9,58.5c-5,1.4-10.3,2.1-15.7,2.1
		c-3.9,0-7.6-0.4-11.2-1.1c7.6,23.7,29.6,41,55.8,41.5c-20.4,16-46.2,25.6-74.1,25.6c-4.8,0-9.6-0.3-14.2-0.8
		c26.4,16.9,57.8,26.8,91.5,26.8c109.8,0,169.9-91,169.9-169.9c0-2.6-0.1-5.2-0.2-7.7c11.7-8.4,21.8-18.9,29.8-30.9
		C388.8,166,377.3,169.2,365.2,170.6z"/>
	<path  d="M239,0C107,0,0,107,0,239s107,239,239,239s239-107,239-239S371,0,239,0z M397.4,397.4
		C355.1,439.7,298.8,463,239,463s-116.1-23.3-158.4-65.6C38.3,355.1,15,298.8,15,239S38.3,122.9,80.6,80.6
		C122.9,38.3,179.2,15,239,15s116.1,23.3,158.4,65.6C439.7,122.9,463,179.2,463,239S439.7,355.1,397.4,397.4z"/>
</g>
</svg>
