<!-- Generated by IcoMoon.io -->
<svg version="1.1" xmlns="http://www.w3.org/2000/svg" width="849" height="1024" viewBox="0 0 849 1024">
<title></title>
<g id="icomoon-ignore">
</g>
<path d="M265.901 1024c-5.657 0-16.972 0-22.63-5.657-22.63-11.315-33.945-28.287-33.945-50.917v-588.376h-152.751c-33.945 0-56.575-28.287-56.575-56.575v-175.381c0-79.204 67.89-147.094 147.094-147.094h560.088c73.547 0 141.436 67.89 141.436 147.094v820.331c0 22.63-11.315 39.602-33.945 50.917s-45.26 5.657-62.232-5.657l-226.298-181.039-226.298 181.039c-11.315 5.657-22.63 11.315-33.945 11.315zM526.144 769.414c11.315 0 22.63 5.657 33.945 11.315l226.298 181.039v-820.331c5.657-45.26-33.945-84.862-84.862-84.862h-458.254c11.315 16.972 16.972 39.602 16.972 62.232v848.619l226.298-181.039c16.972-11.315 28.287-16.972 39.602-16.972zM147.094 56.575c-50.917 0-90.519 39.602-90.519 90.519v175.381h147.094v-203.669c0-33.945-22.63-62.232-56.575-62.232z"></path>
</svg>
